
<svg width="40px" height="40px" viewBox="0 0 40 40" version="1.1" xmlns="http://www.w3.org/2000/svg" xmlns:xlink="http://www.w3.org/1999/xlink">
    <g id="Page-1" stroke="none" stroke-width="1" fill="none" fill-rule="evenodd">
        <g id="bluesky">
            <g id="instagram-copy" fill="#F2E57C" fill-rule="nonzero">
                <circle id="Oval" cx="20" cy="20" r="20"></circle>
            </g>
            <g transform="translate(7.0006, 8.4393)">
                <path d="M13.7913525,27.5713459 L13.7753525,27.5740126 L13.6806858,27.6206793 L13.6540192,27.6260126 L13.6353525,27.6206793 L13.5406858,27.5726793 C13.5264636,27.5691237 13.5157969,27.5717904 13.5086858,27.5806793 L13.5033525,27.5940126 L13.4806858,28.1646793 L13.4873525,28.1913459 L13.5006858,28.2086793 L13.6393525,28.3073459 L13.6593525,28.3126793 L13.6753525,28.3073459 L13.8140192,28.2086793 L13.8300192,28.1873459 L13.8353525,28.1646793 L13.8126858,27.5953459 C13.8091303,27.5811237 13.8020192,27.5731237 13.7913525,27.5713459 M14.1433525,27.4206793 L14.1246858,27.4233459 L13.8793525,27.5473459 L13.8660192,27.5606793 L13.8620192,27.5753459 L13.8860192,28.1486793 L13.8926858,28.1646793 L13.9033525,28.1753459 L14.1713525,28.2980126 C14.1882414,28.302457 14.2011303,28.2989015 14.2100192,28.2873459 L14.2153525,28.2686793 L14.1700192,27.4500126 C14.1655747,27.4331237 14.1566858,27.4233459 14.1433525,27.4206793 M13.1900192,27.4233459 C13.1778121,27.415948 13.1619441,27.4194742 13.1540192,27.4313459 L13.1460192,27.4500126 L13.1006858,28.2686793 C13.1015747,28.2846793 13.1091303,28.2953459 13.1233525,28.3006793 L13.1433525,28.2980126 L13.4113525,28.1740126 L13.4246858,28.1633459 L13.4286858,28.1486793 L13.4526858,27.5753459 L13.4486858,27.5593459 L13.4353525,27.5460126 L13.1900192,27.4233459 Z" id="Shape"></path>
                <path d="M4.8553525,0.467345936 C2.48201916,-0.945987397 -0.228647504,1.0620126 0.0153524964,3.61267927 L0.546019163,9.19267927 C0.78068583,11.6660126 2.9993525,14.5606793 6.1393525,14.2900126 C2.9993525,15.2273459 1.1753525,17.7140126 3.50601916,20.7540126 C3.8873525,21.2513459 4.30201916,21.7473459 4.72468583,22.1700126 C5.1473525,22.5926793 5.64468583,23.0073459 6.14068583,23.3886793 C8.6473525,25.3100126 11.9740192,22.5220126 12.8806858,19.8020126 L13.0006858,19.4446793 L13.1206858,19.8033459 C14.0273525,22.5233459 17.3526858,25.3100126 19.8606858,23.3886793 C20.3566858,23.0073459 20.8540192,22.5926793 21.2766858,22.1700126 C21.6993525,21.7473459 22.1140192,21.2500126 22.4953525,20.7540126 C24.8246858,17.7140126 23.0006858,15.2273459 19.8606858,14.2900126 C23.0006858,14.5606793 25.2180192,11.6660126 25.4540192,9.19267927 L25.9860192,3.61267927 C26.2286858,1.0620126 23.5166858,-0.944654064 21.1446858,0.466012603 C17.2660192,2.7740126 14.9793525,6.4180126 12.9993525,9.76334594 C11.0193525,6.41667927 8.73268583,2.7740126 4.8553525,0.467345936" id="Path" fill="#000000" fill-rule="nonzero"></path>
            </g>
        </g>
    </g>
</svg>