<?xml version="1.0" encoding="UTF-8"?>
<svg width="40px" height="40px" viewBox="0 0 40 40" version="1.1" xmlns="http://www.w3.org/2000/svg" xmlns:xlink="http://www.w3.org/1999/xlink">
    <title>instagram</title>
    <g id="Twitter" stroke="none" stroke-width="1" fill="none" fill-rule="evenodd">
        <g id="instagram" fill-rule="nonzero">
            <circle id="Oval" fill="#F2E57C" cx="20" cy="20" r="20"></circle>
            <path d="M20,8.9 C23.62,8.9 24.04,8.91 25.47,8.98 C26.79,9.04 27.51,9.26 27.99,9.45 C28.62,9.7 29.07,9.99 29.55,10.46 C30.03,10.93 30.32,11.39 30.56,12.02 C30.75,12.5 30.97,13.21 31.03,14.54 C31.1,15.97 31.11,16.4 31.11,20.01 C31.11,23.62 31.1,24.05 31.03,25.48 C30.97,26.8 30.75,27.52 30.56,28 C30.31,28.63 30.02,29.08 29.55,29.56 C29.08,30.03 28.62,30.33 27.99,30.57 C27.51,30.76 26.8,30.98 25.47,31.04 C24.04,31.11 23.61,31.12 20,31.12 C16.39,31.12 15.95,31.11 14.53,31.04 C13.21,30.98 12.49,30.76 12.01,30.57 C11.38,30.32 10.93,30.03 10.45,29.56 C9.98,29.09 9.68,28.63 9.44,28 C9.25,27.52 9.03,26.81 8.97,25.48 C8.9,24.05 8.89,23.62 8.89,20.01 C8.89,16.4 8.9,15.97 8.97,14.54 C9.03,13.22 9.25,12.5 9.44,12.02 C9.69,11.39 9.98,10.94 10.45,10.46 C10.92,9.99 11.38,9.69 12.01,9.45 C12.49,9.26 13.2,9.04 14.53,8.98 C15.96,8.91 16.39,8.9 20,8.9 M20,6.46 C16.32,6.46 15.86,6.48 14.42,6.54 C12.98,6.61 11.99,6.83 11.13,7.17 C10.24,7.52 9.48,7.98 8.73,8.73 C7.98,9.48 7.51,10.24 7.17,11.13 C6.84,11.99 6.61,12.98 6.54,14.42 C6.47,15.86 6.46,16.33 6.46,20 C6.46,23.67 6.48,24.14 6.54,25.58 C6.61,27.02 6.83,28.01 7.17,28.87 C7.52,29.76 7.98,30.52 8.73,31.27 C9.48,32.02 10.24,32.49 11.13,32.83 C11.99,33.16 12.98,33.39 14.42,33.46 C15.86,33.53 16.33,33.54 20,33.54 C23.67,33.54 24.14,33.52 25.58,33.46 C27.02,33.39 28.01,33.17 28.87,32.83 C29.76,32.48 30.52,32.02 31.27,31.27 C32.02,30.52 32.49,29.76 32.83,28.87 C33.16,28.01 33.39,27.02 33.46,25.58 C33.53,24.14 33.54,23.67 33.54,20 C33.54,16.33 33.52,15.86 33.46,14.42 C33.39,12.98 33.17,11.99 32.83,11.13 C32.48,10.24 32.02,9.48 31.27,8.73 C30.52,7.98 29.76,7.51 28.87,7.17 C28.01,6.84 27.02,6.61 25.58,6.54 C24.14,6.47 23.67,6.46 20,6.46 L20,6.46 Z M20,13.05 C16.16,13.05 13.04,16.16 13.04,20.01 C13.04,23.86 16.15,26.97 20,26.97 C23.85,26.97 26.96,23.86 26.96,20.01 C26.96,16.16 23.85,13.05 20,13.05 Z M20,24.52 C17.51,24.52 15.49,22.5 15.49,20.01 C15.49,17.52 17.51,15.5 20,15.5 C22.49,15.5 24.51,17.52 24.51,20.01 C24.51,22.5 22.49,24.52 20,24.52 Z M28.86,12.77 C28.86,13.67 28.13,14.4 27.23,14.4 C26.33,14.4 25.6,13.67 25.6,12.77 C25.6,11.87 26.33,11.14 27.23,11.14 C28.13,11.14 28.86,11.87 28.86,12.77 Z" id="Shape" fill="#000000"></path>
        </g>
    </g>
</svg>