<?xml version="1.0" encoding="UTF-8"?>
<svg width="40px" height="40px" viewBox="0 0 40 40" version="1.1" xmlns="http://www.w3.org/2000/svg" xmlns:xlink="http://www.w3.org/1999/xlink">
    <title>steam</title>
    <g id="Twitter" stroke="none" stroke-width="1" fill="none" fill-rule="evenodd">
        <g id="steam" transform="translate(0, 0.0536)" fill-rule="nonzero">
            <path d="M40.0008291,19.9464077 C39.9980103,29.5127572 33.2211879,37.7376263 23.8319948,39.5701395 C14.4428017,41.4026526 5.07059549,36.3296313 1.47082911,27.4664077 C1.38082911,27.2664077 1.31082911,27.0664077 1.23082911,26.8664077 C1.15082911,26.6664077 1.09082911,26.4764077 1.03082911,26.2764077 C0.345929236,24.2363656 -0.00196287936,22.098349 0.000829105592,19.9464077 C-0.00249591272,19.7728341 0.00418181791,19.5992131 0.0208291056,19.4264077 C0.0141635502,19.2530262 0.0175024265,19.0794046 0.0308291056,18.9064077 C0.622650658,8.1004039 9.70257898,-0.274600853 20.5211155,0.00689221574 C31.339652,0.288385284 39.9717619,9.12424867 40.0008291,19.9464077 L40.0008291,19.9464077 Z" id="Path" fill="#F2E57C"></path>
            <circle id="Oval" fill="#000000" cx="24.5008291" cy="14.4464077" r="3.5"></circle>
            <path d="M24.5008291,10.4464077 C22.2916901,10.4464077 20.5008291,12.2372687 20.5008291,14.4464077 C20.5008291,16.6555467 22.2916901,18.4464077 24.5008291,18.4464077 C26.7099681,18.4464077 28.5008291,16.6555467 28.5008291,14.4464077 C28.5008291,12.2372687 26.7099681,10.4464077 24.5008291,10.4464077 Z M24.5008291,17.9464077 C22.5678325,17.9464077 21.0008291,16.3794043 21.0008291,14.4464077 C21.0008291,12.513411 22.5678325,10.9464077 24.5008291,10.9464077 C26.4338257,10.9464077 28.0008291,12.513411 28.0008291,14.4464077 C28.0008291,16.3794043 26.4338257,17.9464077 24.5008291,17.9464077 Z" id="Shape" fill="#000000" opacity="0.07"></path>
            <path d="M24.5008291,5.94640766 C19.8077801,5.9497169 16.0041383,9.7533587 16.0008291,14.4464077 C16.0008291,14.6264077 16.0208291,14.7964077 16.0308291,14.9664077 L13.0008291,19.9464077 C11.0164689,19.9451912 9.12544203,20.7888802 7.80082911,22.2664077 L0.000812433357,19.9464077 C-0.00196287936,22.098349 0.345929236,24.2363656 1.03082911,26.2764077 L6.07082911,27.8864077 C6.58730429,31.5150384 9.81538712,34.1308999 13.4722728,33.8841323 C17.1291586,33.6373647 19.9765382,30.6115294 20.0008291,26.9464077 C19.9965235,26.5847268 19.9664473,26.2238125 19.9108291,25.8664077 L24.9708291,22.9264077 C29.5231104,22.6185571 33.0203123,18.7715225 32.8940675,14.2105907 C32.7678226,9.64965888 29.0631695,6.00196891 24.5008291,5.94640766 L24.5008291,5.94640766 Z M13.0008291,31.9464106 C10.8817771,31.9409688 8.99726636,30.5977537 8.30082911,28.5964077 L12.0508291,29.7864077 L12.0608291,29.7764077 C12.0608291,29.7864077 12.0708291,29.7864077 12.0808291,29.7864077 C12.2208291,29.8264077 12.3508291,29.8664077 12.4908291,29.8964077 C12.6590476,29.9279015 12.829697,29.9446319 13.0008291,29.9464077 C14.4644687,29.9508315 15.7163132,28.8953965 15.9593477,27.4520689 C16.2023823,26.0087412 15.3652074,24.6015469 13.9808291,24.1264077 L13.9508291,24.0964077 L10.0408291,22.9364077 C11.7853872,21.6485437 14.1617592,21.6339247 15.92203,22.9002278 C17.6823008,24.1665308 18.4240102,26.4242343 17.7576611,28.4877399 C17.0913119,30.5512455 15.169255,31.948763 13.0008291,31.9464106 Z M24.5008291,19.9464077 C21.463263,19.9464077 19.0008291,17.4839738 19.0008291,14.4464077 C19.0008291,11.4088415 21.463263,8.94640766 24.5008291,8.94640766 C27.5383952,8.94640766 30.0008291,11.4088415 30.0008291,14.4464077 C30.0008291,15.9050984 29.4213665,17.3040449 28.3899164,18.335495 C27.3584663,19.366945 25.9595198,19.9464077 24.5008291,19.9464077 Z" id="Shape" fill="#000000"></path>
            <path d="M29.4008291,13.4364077 C29.329964,13.1189436 29.2329668,12.8078835 29.1108291,12.5064077 C29.0508291,12.3564077 28.9708291,12.2064077 28.9008291,12.0664077 C28.4308842,11.2164891 27.7307476,10.5163526 26.8808291,10.0464077 C26.7408291,9.97640766 26.5908291,9.89640766 26.4408291,9.83640766 C26.1393532,9.71427001 25.8282932,9.61727279 25.5108291,9.54640766 C24.8440977,9.41306113 24.1575605,9.41306113 23.4908291,9.54640766 C23.173365,9.61727279 22.862305,9.71427001 22.5608291,9.83640766 C22.4108291,9.89640766 22.2608291,9.97640766 22.1208291,10.0464077 C21.2709106,10.5163526 20.5707741,11.2164891 20.1008291,12.0664077 C20.0308291,12.2064077 19.9508291,12.3564077 19.8908291,12.5064077 C19.7686915,12.8078835 19.6716942,13.1189436 19.6008291,13.4364077 C19.4674826,14.103139 19.4674826,14.7896763 19.6008291,15.4564077 C19.6716942,15.7738717 19.7686915,16.0849318 19.8908291,16.3864077 C19.9508291,16.5364077 20.0308291,16.6864077 20.1008291,16.8264077 C20.5707741,17.6763262 21.2709106,18.3764627 22.1208291,18.8464077 C22.2608291,18.9164077 22.4108291,18.9964077 22.5608291,19.0564077 C22.862305,19.1785453 23.173365,19.2755425 23.4908291,19.3464077 C24.1575605,19.4797542 24.8440977,19.4797542 25.5108291,19.3464077 C25.8282932,19.2755425 26.1393532,19.1785453 26.4408291,19.0564077 C26.5908291,18.9964077 26.7408291,18.9164077 26.8808291,18.8464077 C27.7307476,18.3764627 28.4308842,17.6763262 28.9008291,16.8264077 C28.9708291,16.6864077 29.0508291,16.5364077 29.1108291,16.3864077 C29.2329668,16.0849318 29.329964,15.7738717 29.4008291,15.4564077 C29.5341492,14.7896737 29.5341492,14.1031416 29.4008291,13.4364077 L29.4008291,13.4364077 Z M24.5008291,18.4464077 C22.2916901,18.4464077 20.5008291,16.6555467 20.5008291,14.4464077 C20.5008291,12.2372687 22.2916901,10.4464077 24.5008291,10.4464077 C26.7099681,10.4464077 28.5008291,12.2372687 28.5008291,14.4464077 C28.5008291,16.6555467 26.7099681,18.4464077 24.5008291,18.4464077 Z M13.0008291,22.4464001 C12.4174402,22.4480725 11.8399823,22.5635641 11.3008291,22.7864077 L14.0908291,23.6164077 L14.2108291,23.6764077 L14.2208291,23.6864077 C15.8078928,24.2724914 16.745534,25.9129842 16.4450591,27.5779107 C16.1445841,29.2428372 14.6926427,30.452074 13.0008291,30.4464001 C12.8026733,30.4457547 12.6050597,30.4256584 12.4108291,30.3864077 L12.3808291,30.3864077 L12.3708291,30.4164077 L11.9008291,30.2664077 L9.27082911,29.4264077 C10.4593442,31.2114054 12.7440338,31.9070741 14.7256622,31.0873584 C16.7072905,30.2676426 17.8328978,28.1612784 17.4131167,26.0582879 C16.9933357,23.9552975 15.1453033,22.4425059 13.0008291,22.4464001 Z M13.0008291,22.4464001 C12.4174402,22.4480725 11.8399823,22.5635641 11.3008291,22.7864077 L14.0908291,23.6164077 L14.2108291,23.6764077 L14.2208291,23.6864077 C15.8078928,24.2724914 16.745534,25.9129842 16.4450591,27.5779107 C16.1445841,29.2428372 14.6926427,30.452074 13.0008291,30.4464001 C12.8026733,30.4457547 12.6050597,30.4256584 12.4108291,30.3864077 L12.3808291,30.3864077 L12.3708291,30.4164077 L11.9008291,30.2664077 L9.27082911,29.4264077 C10.4593442,31.2114054 12.7440338,31.9070741 14.7256622,31.0873584 C16.7072905,30.2676426 17.8328978,28.1612784 17.4131167,26.0582879 C16.9933357,23.9552975 15.1453033,22.4425059 13.0008291,22.4464001 Z M24.5008291,4.94640766 C19.2561805,4.95136923 15.0057907,9.20175906 15.0008291,14.4464077 C14.999167,14.5365233 15.0025054,14.6266618 15.0108291,14.7164077 L12.4308291,18.9664077 C10.5890886,19.098438 8.8502084,19.8653831 7.51082911,21.1364077 L0.290829106,18.9864077 L0.0308291056,18.9064077 C0.0174977445,19.0794046 0.0141635502,19.2530262 0.0208291056,19.4264077 L0.140829106,19.4664077 L7.65082911,21.7064077 C8.99066578,20.3352926 10.8051835,19.5300332 12.7208291,19.4564077 L15.5208291,14.8464077 C15.5108291,14.7164077 15.5008291,14.5764077 15.5008291,14.4464077 C15.4961452,9.55531244 19.3985339,5.55581503 24.288267,5.4402993 C29.1780002,5.32478357 33.2648994,9.13554094 33.4911877,14.0214009 C33.7174759,18.907261 30.0003068,23.0794631 25.1208291,23.4164077 L20.4508291,26.1364077 C20.4818192,26.4053325 20.4985093,26.675713 20.5008291,26.9464077 C20.4924672,30.825498 17.5274924,34.0581356 13.6635666,34.4009032 C9.79964087,34.7436708 6.31191248,32.0834504 5.62082911,28.2664077 L1.23082911,26.8664077 C1.31082911,27.0664077 1.38082911,27.2664077 1.47082911,27.4664077 L5.19082911,28.6564077 C6.07391697,32.6361182 9.80824667,35.3153498 13.8611202,34.8769935 C17.9139937,34.4386372 20.9890954,31.0229015 21.0008291,26.9464077 C21.0008291,26.7664077 20.9908291,26.5864077 20.9808291,26.4064077 L25.2708291,23.9064077 C30.3095288,23.445375 34.1027024,19.1160121 33.8973861,14.060432 C33.6920699,9.00485181 29.5603204,4.99733448 24.5008291,4.94640766 L24.5008291,4.94640766 Z M13.0008291,30.4464077 C12.8026733,30.4457547 12.6050597,30.4256584 12.4108291,30.3864077 L12.3808291,30.3864077 L12.3708291,30.4164077 L11.9008291,30.2664077 L9.27082911,29.4264077 C10.5809525,31.4008944 13.1988612,32.0192428 15.2539822,30.8396247 C17.3091032,29.6600066 18.0955485,27.0875944 17.0513797,24.9604525 C16.007211,22.8333106 13.4910767,21.8820645 11.3008291,22.7864077 L14.0908291,23.6164077 L14.2108291,23.6764077 L14.2208291,23.6864077 C15.8078928,24.2724914 16.745534,25.9129842 16.4450591,27.5779107 C16.1445841,29.2428372 14.6926427,30.452074 13.0008291,30.4464077 Z M13.0008291,22.4464001 C12.4174402,22.4480725 11.8399823,22.5635641 11.3008291,22.7864077 L14.0908291,23.6164077 L14.2108291,23.6764077 L14.2208291,23.6864077 C15.8078928,24.2724914 16.745534,25.9129842 16.4450591,27.5779107 C16.1445841,29.2428372 14.6926427,30.452074 13.0008291,30.4464001 C12.8026733,30.4457547 12.6050597,30.4256584 12.4108291,30.3864077 L12.3808291,30.3864077 L12.3708291,30.4164077 L11.9008291,30.2664077 L9.27082911,29.4264077 C10.4593442,31.2114054 12.7440338,31.9070741 14.7256622,31.0873584 C16.7072905,30.2676426 17.8328978,28.1612784 17.4131167,26.0582879 C16.9933357,23.9552975 15.1453033,22.4425059 13.0008291,22.4464001 Z M13.0008291,22.4464001 C12.4174402,22.4480725 11.8399823,22.5635641 11.3008291,22.7864077 L14.0908291,23.6164077 L14.2108291,23.6764077 L14.2208291,23.6864077 C15.8078928,24.2724914 16.745534,25.9129842 16.4450591,27.5779107 C16.1445841,29.2428372 14.6926427,30.452074 13.0008291,30.4464001 C12.8026733,30.4457547 12.6050597,30.4256584 12.4108291,30.3864077 L12.3808291,30.3864077 L12.3708291,30.4164077 L11.9008291,30.2664077 L9.27082911,29.4264077 C10.4593442,31.2114054 12.7440338,31.9070741 14.7256622,31.0873584 C16.7072905,30.2676426 17.8328978,28.1612784 17.4131167,26.0582879 C16.9933357,23.9552975 15.1453033,22.4425059 13.0008291,22.4464001 Z M13.0008291,22.4464001 C12.4174402,22.4480725 11.8399823,22.5635641 11.3008291,22.7864077 L14.0908291,23.6164077 L14.2108291,23.6764077 L14.2208291,23.6864077 C15.8078928,24.2724914 16.745534,25.9129842 16.4450591,27.5779107 C16.1445841,29.2428372 14.6926427,30.452074 13.0008291,30.4464001 C12.8026733,30.4457547 12.6050597,30.4256584 12.4108291,30.3864077 L12.3808291,30.3864077 L12.3708291,30.4164077 L11.9008291,30.2664077 L9.27082911,29.4264077 C10.4593442,31.2114054 12.7440338,31.9070741 14.7256622,31.0873584 C16.7072905,30.2676426 17.8328978,28.1612784 17.4131167,26.0582879 C16.9933357,23.9552975 15.1453033,22.4425059 13.0008291,22.4464001 Z M13.0008291,22.4464001 C12.4174402,22.4480725 11.8399823,22.5635641 11.3008291,22.7864077 L14.0908291,23.6164077 L14.2108291,23.6764077 L14.2208291,23.6864077 C15.8078928,24.2724914 16.745534,25.9129842 16.4450591,27.5779107 C16.1445841,29.2428372 14.6926427,30.452074 13.0008291,30.4464001 C12.8026733,30.4457547 12.6050597,30.4256584 12.4108291,30.3864077 L12.3808291,30.3864077 L12.3708291,30.4164077 L11.9008291,30.2664077 L9.27082911,29.4264077 C10.4593442,31.2114054 12.7440338,31.9070741 14.7256622,31.0873584 C16.7072905,30.2676426 17.8328978,28.1612784 17.4131167,26.0582879 C16.9933357,23.9552975 15.1453033,22.4425059 13.0008291,22.4464001 Z" id="Shape" fill="#000000" opacity="0.05"></path>
            <path d="M24.5008291,5.44640766 C19.5334631,5.4541167 15.5085381,9.47904161 15.5008291,14.4464077 C15.5008291,14.5764077 15.5108291,14.7164077 15.5208291,14.8464077 L12.7208291,19.4564077 C10.8051835,19.5300332 8.99066578,20.3352926 7.65082911,21.7064077 L0.140829106,19.4664077 L0.0208291056,19.4264077 C0.00418181791,19.5992131 -0.00249591272,19.7728341 0.000829105592,19.9464077 L7.80082911,22.2664077 C9.12544203,20.7888802 11.0164689,19.9451912 13.0008291,19.9464077 L16.0308291,14.9664077 C16.0208291,14.7964077 16.0008291,14.6264077 16.0008291,14.4464077 C15.997015,9.8121791 19.7060299,6.0289412 24.3394245,5.94094441 C28.9728191,5.85294762 32.822809,9.49262594 32.9949594,14.1236575 C33.1671099,18.754689 29.5979693,22.6701604 24.9708291,22.9264077 L19.9108291,25.8664077 C19.9664473,26.2238125 19.9965235,26.5847268 20.0008291,26.9464077 C19.9765382,30.6115294 17.1291586,33.6373647 13.4722728,33.8841323 C9.81538712,34.1308999 6.58730429,31.5150384 6.07082911,27.8864077 L1.03082911,26.2764077 C1.09082911,26.4764077 1.16082911,26.6764077 1.23082911,26.8664077 L5.62082911,28.2664077 C6.31191248,32.0834504 9.79964087,34.7436708 13.6635666,34.4009032 C17.5274924,34.0581356 20.4924672,30.825498 20.5008291,26.9464077 C20.4985075,26.6757131 20.4818173,26.4053327 20.4508291,26.1364077 L25.1208291,23.4164077 C29.9136635,23.0282551 33.5547865,18.9411114 33.3889816,14.1354447 C33.2231768,9.32977799 29.3090186,5.50330615 24.5008291,5.44640766 L24.5008291,5.44640766 Z M24.5008291,19.9464077 C27.5383952,19.9464077 30.0008291,17.4839738 30.0008291,14.4464077 C30.0008291,11.4088415 27.5383952,8.94640766 24.5008291,8.94640766 C21.463263,8.94640766 19.0008291,11.4088415 19.0008291,14.4464077 C19.0008291,17.4839738 21.463263,19.9464077 24.5008291,19.9464077 Z M19.8908291,16.3864077 C19.7642113,16.0865532 19.6670865,15.7750841 19.6008291,15.4564077 C19.4674826,14.7896763 19.4674826,14.103139 19.6008291,13.4364077 C19.6670804,13.1177296 19.7642054,12.8062599 19.8908291,12.5064077 C19.9508291,12.3564077 20.0308291,12.2064077 20.1008291,12.0664077 C20.5707741,11.2164891 21.2709106,10.5163526 22.1208291,10.0464077 C22.2608291,9.97640766 22.4108291,9.89640766 22.5608291,9.83640766 C22.8606814,9.70978392 23.172151,9.61265896 23.4908291,9.54640766 C24.1575605,9.41306113 24.8440977,9.41306113 25.5108291,9.54640766 C25.8295072,9.61265896 26.1409769,9.70978392 26.4408291,9.83640766 C26.5908291,9.89640766 26.7408291,9.97640766 26.8808291,10.0464077 C27.7307476,10.5163526 28.4308842,11.2164891 28.9008291,12.0664077 C28.9708291,12.2064077 29.0508291,12.3564077 29.1108291,12.5064077 C29.2374528,12.8062599 29.3345778,13.1177296 29.4008291,13.4364077 C29.5341492,14.1031416 29.5341492,14.7896737 29.4008291,15.4564077 C29.3345778,15.7750857 29.2374528,16.0865554 29.1108291,16.3864077 C29.0508291,16.5364077 28.9708291,16.6864077 28.9008291,16.8264077 C28.4308842,17.6763262 27.7307476,18.3764627 26.8808291,18.8464077 C26.7408291,18.9164077 26.5908291,18.9964077 26.4408291,19.0564077 C26.1409747,19.1830254 25.8295056,19.2801502 25.5108291,19.3464077 C24.8440977,19.4797542 24.1575605,19.4797542 23.4908291,19.3464077 C23.172151,19.2801564 22.8606814,19.1830314 22.5608291,19.0564077 C22.4108291,18.9964077 22.2608291,18.9164077 22.1208291,18.8464077 C21.2709106,18.3764627 20.5707741,17.6763262 20.1008291,16.8264077 C20.0308291,16.6864077 19.9508291,16.5364077 19.8908291,16.3864077 Z M13.0008291,29.9464077 C12.829697,29.9446319 12.6590476,29.9279015 12.4908291,29.8964077 C12.3508291,29.8664077 12.2208291,29.8264077 12.0808291,29.7864077 C12.0708291,29.7864077 12.0608291,29.7864077 12.0608291,29.7764077 L12.0508291,29.7864077 L8.30082911,28.5964077 C9.01161966,30.640943 10.9559588,31.997054 13.1201681,31.957734 C15.2843775,31.9184141 17.1781733,30.4925708 17.8142279,28.4235656 C18.4502825,26.3545604 17.684503,24.1111092 15.9161274,22.862832 C14.1477518,21.6145548 11.777391,21.6442386 10.0408291,22.9364077 L13.9508291,24.0964077 L13.9808291,24.1264077 C15.3652074,24.6015469 16.2023823,26.0087412 15.9593477,27.4520689 C15.7163132,28.8953965 14.4644687,29.9508315 13.0008291,29.9464077 L13.0008291,29.9464077 Z M16.5008291,26.9464077 C16.496049,25.490279 15.5869528,24.190431 14.2208291,23.6864077 L14.2108291,23.6764077 L14.0908291,23.6164077 L11.3008291,22.7864077 C13.493731,21.8775018 16.01552,22.8282928 17.0624969,24.9587312 C18.1094737,27.0891697 17.3215287,29.6664873 15.2622363,30.8472682 C13.2029439,32.028049 10.5806017,31.4061613 9.27082911,29.4264077 L11.9008291,30.2664077 L12.3708291,30.4164077 L12.3808291,30.3864077 L12.4108291,30.3864077 C12.6050597,30.4256584 12.8026733,30.4457547 13.0008291,30.4464077 C14.9338257,30.4464077 16.5008291,28.8794043 16.5008291,26.9464077 Z M13.0008291,21.9464001 C11.9336856,21.951407 10.8962524,22.2983864 10.0408291,22.9364077 L13.9508291,24.0964077 L13.9808291,24.1264077 C15.3652074,24.6015469 16.2023823,26.0087412 15.9593477,27.4520689 C15.7163132,28.8953965 14.4644687,29.9508315 13.0008291,29.9464001 C12.829697,29.9446319 12.6590476,29.9279015 12.4908291,29.8964077 C12.3508291,29.8664077 12.2208291,29.8264077 12.0808291,29.7864077 C12.0708291,29.7864077 12.0608291,29.7864077 12.0608291,29.7764077 L12.0508291,29.7864077 L8.30082911,28.5964077 C9.14463829,30.9927626 11.6536346,32.3731376 14.1294438,31.8031376 C16.605253,31.2331376 18.2580528,28.8946016 17.9690403,26.3705171 C17.6800277,23.8464325 15.5414022,21.9420221 13.0008291,21.9464001 L13.0008291,21.9464001 Z M13.0008291,31.4464358 C11.497303,31.4416475 10.0964226,30.6829938 9.27082911,29.4264077 L11.9008291,30.2664077 L12.3708291,30.4164077 L12.3808291,30.3864077 L12.4108291,30.3864077 C12.6050597,30.4256584 12.8026733,30.4457547 13.0008291,30.4464077 C14.6926427,30.452074 16.1445841,29.2428372 16.4450591,27.5779107 C16.745534,25.9129842 15.8078928,24.2724914 14.2208291,23.6864077 L14.2108291,23.6764077 L14.0908291,23.6164077 L11.3008291,22.7864077 C12.9844275,22.0919856 14.920594,22.4808043 16.2055691,23.7713719 C17.4905441,25.0619394 17.8709509,26.9997763 17.1692239,28.6803431 C16.467497,30.3609098 14.8220057,31.4528254 13.0008291,31.4464358 Z M24.5008291,8.94640766 C21.463263,8.94640766 19.0008291,11.4088415 19.0008291,14.4464077 C19.0008291,17.4839738 21.463263,19.9464077 24.5008291,19.9464077 C27.5383952,19.9464077 30.0008291,17.4839738 30.0008291,14.4464077 C30.0008291,11.4088415 27.5383952,8.94640766 24.5008291,8.94640766 L24.5008291,8.94640766 Z M29.1108291,16.3864077 C29.0508291,16.5364077 28.9708291,16.6864077 28.9008291,16.8264077 C28.4308842,17.6763262 27.7307476,18.3764627 26.8808291,18.8464077 C26.7408291,18.9164077 26.5908291,18.9964077 26.4408291,19.0564077 C26.1409747,19.1830254 25.8295056,19.2801502 25.5108291,19.3464077 C24.8440977,19.4797542 24.1575605,19.4797542 23.4908291,19.3464077 C23.172151,19.2801564 22.8606814,19.1830314 22.5608291,19.0564077 C22.4108291,18.9964077 22.2608291,18.9164077 22.1208291,18.8464077 C21.2709106,18.3764627 20.5707741,17.6763262 20.1008291,16.8264077 C20.0308291,16.6864077 19.9508291,16.5364077 19.8908291,16.3864077 C19.7642113,16.0865532 19.6670865,15.7750841 19.6008291,15.4564077 C19.4674826,14.7896763 19.4674826,14.103139 19.6008291,13.4364077 C19.6670804,13.1177296 19.7642054,12.8062599 19.8908291,12.5064077 C19.9508291,12.3564077 20.0308291,12.2064077 20.1008291,12.0664077 C20.5707741,11.2164891 21.2709106,10.5163526 22.1208291,10.0464077 C22.2608291,9.97640766 22.4108291,9.89640766 22.5608291,9.83640766 C22.8606814,9.70978392 23.172151,9.61265896 23.4908291,9.54640766 C24.1575605,9.41306113 24.8440977,9.41306113 25.5108291,9.54640766 C25.8295072,9.61265896 26.1409769,9.70978392 26.4408291,9.83640766 C26.5908291,9.89640766 26.7408291,9.97640766 26.8808291,10.0464077 C27.7307476,10.5163526 28.4308842,11.2164891 28.9008291,12.0664077 C28.9708291,12.2064077 29.0508291,12.3564077 29.1108291,12.5064077 C29.2374528,12.8062599 29.3345778,13.1177296 29.4008291,13.4364077 C29.5341492,14.1031416 29.5341492,14.7896737 29.4008291,15.4564077 C29.3345778,15.7750857 29.2374528,16.0865554 29.1108291,16.3864077 Z M24.5008291,8.94640766 C21.463263,8.94640766 19.0008291,11.4088415 19.0008291,14.4464077 C19.0008291,17.4839738 21.463263,19.9464077 24.5008291,19.9464077 C27.5383952,19.9464077 30.0008291,17.4839738 30.0008291,14.4464077 C30.0008291,11.4088415 27.5383952,8.94640766 24.5008291,8.94640766 L24.5008291,8.94640766 Z M29.1108291,16.3864077 C29.0508291,16.5364077 28.9708291,16.6864077 28.9008291,16.8264077 C28.4308842,17.6763262 27.7307476,18.3764627 26.8808291,18.8464077 C26.7408291,18.9164077 26.5908291,18.9964077 26.4408291,19.0564077 C26.1409747,19.1830254 25.8295056,19.2801502 25.5108291,19.3464077 C24.8440977,19.4797542 24.1575605,19.4797542 23.4908291,19.3464077 C23.172151,19.2801564 22.8606814,19.1830314 22.5608291,19.0564077 C22.4108291,18.9964077 22.2608291,18.9164077 22.1208291,18.8464077 C21.2709106,18.3764627 20.5707741,17.6763262 20.1008291,16.8264077 C20.0308291,16.6864077 19.9508291,16.5364077 19.8908291,16.3864077 C19.7642113,16.0865532 19.6670865,15.7750841 19.6008291,15.4564077 C19.4674826,14.7896763 19.4674826,14.103139 19.6008291,13.4364077 C19.6670804,13.1177296 19.7642054,12.8062599 19.8908291,12.5064077 C19.9508291,12.3564077 20.0308291,12.2064077 20.1008291,12.0664077 C20.5707741,11.2164891 21.2709106,10.5163526 22.1208291,10.0464077 C22.2608291,9.97640766 22.4108291,9.89640766 22.5608291,9.83640766 C22.8606814,9.70978392 23.172151,9.61265896 23.4908291,9.54640766 C24.1575605,9.41306113 24.8440977,9.41306113 25.5108291,9.54640766 C25.8295072,9.61265896 26.1409769,9.70978392 26.4408291,9.83640766 C26.5908291,9.89640766 26.7408291,9.97640766 26.8808291,10.0464077 C27.7307476,10.5163526 28.4308842,11.2164891 28.9008291,12.0664077 C28.9708291,12.2064077 29.0508291,12.3564077 29.1108291,12.5064077 C29.2374528,12.8062599 29.3345778,13.1177296 29.4008291,13.4364077 C29.5341492,14.1031416 29.5341492,14.7896737 29.4008291,15.4564077 C29.3345778,15.7750857 29.2374528,16.0865554 29.1108291,16.3864077 Z M13.0008291,21.9464001 C11.9336856,21.951407 10.8962524,22.2983864 10.0408291,22.9364077 L13.9508291,24.0964077 L13.9808291,24.1264077 C15.3652074,24.6015469 16.2023823,26.0087412 15.9593477,27.4520689 C15.7163132,28.8953965 14.4644687,29.9508315 13.0008291,29.9464001 C12.829697,29.9446319 12.6590476,29.9279015 12.4908291,29.8964077 C12.3508291,29.8664077 12.2208291,29.8264077 12.0808291,29.7864077 C12.0708291,29.7864077 12.0608291,29.7864077 12.0608291,29.7764077 L12.0508291,29.7864077 L8.30082911,28.5964077 C9.14463829,30.9927626 11.6536346,32.3731376 14.1294438,31.8031376 C16.605253,31.2331376 18.2580528,28.8946016 17.9690403,26.3705171 C17.6800277,23.8464325 15.5414022,21.9420221 13.0008291,21.9464001 L13.0008291,21.9464001 Z M13.0008291,31.4464358 C11.497303,31.4416475 10.0964226,30.6829938 9.27082911,29.4264077 L11.9008291,30.2664077 L12.3708291,30.4164077 L12.3808291,30.3864077 L12.4108291,30.3864077 C12.6050597,30.4256584 12.8026733,30.4457547 13.0008291,30.4464077 C14.6926427,30.452074 16.1445841,29.2428372 16.4450591,27.5779107 C16.745534,25.9129842 15.8078928,24.2724914 14.2208291,23.6864077 L14.2108291,23.6764077 L14.0908291,23.6164077 L11.3008291,22.7864077 C12.9844275,22.0919856 14.920594,22.4808043 16.2055691,23.7713719 C17.4905441,25.0619394 17.8709509,26.9997763 17.1692239,28.6803431 C16.467497,30.3609098 14.8220057,31.4528254 13.0008291,31.4464358 Z" id="Shape" fill="#000000" opacity="0.07"></path>
            <path d="M24.5008291,8.94640766 C21.463263,8.94640766 19.0008291,11.4088415 19.0008291,14.4464077 C19.0008291,17.4839738 21.463263,19.9464077 24.5008291,19.9464077 C27.5383952,19.9464077 30.0008291,17.4839738 30.0008291,14.4464077 C30.0008291,11.4088415 27.5383952,8.94640766 24.5008291,8.94640766 L24.5008291,8.94640766 Z M29.1108291,16.3864077 C29.0508291,16.5364077 28.9708291,16.6864077 28.9008291,16.8264077 C28.4308842,17.6763262 27.7307476,18.3764627 26.8808291,18.8464077 C26.7408291,18.9164077 26.5908291,18.9964077 26.4408291,19.0564077 C26.1409747,19.1830254 25.8295056,19.2801502 25.5108291,19.3464077 C24.8440977,19.4797542 24.1575605,19.4797542 23.4908291,19.3464077 C23.172151,19.2801564 22.8606814,19.1830314 22.5608291,19.0564077 C22.4108291,18.9964077 22.2608291,18.9164077 22.1208291,18.8464077 C21.2709106,18.3764627 20.5707741,17.6763262 20.1008291,16.8264077 C20.0308291,16.6864077 19.9508291,16.5364077 19.8908291,16.3864077 C19.7642113,16.0865532 19.6670865,15.7750841 19.6008291,15.4564077 C19.4674826,14.7896763 19.4674826,14.103139 19.6008291,13.4364077 C19.6670804,13.1177296 19.7642054,12.8062599 19.8908291,12.5064077 C19.9508291,12.3564077 20.0308291,12.2064077 20.1008291,12.0664077 C20.5707741,11.2164891 21.2709106,10.5163526 22.1208291,10.0464077 C22.2608291,9.97640766 22.4108291,9.89640766 22.5608291,9.83640766 C22.8606814,9.70978392 23.172151,9.61265896 23.4908291,9.54640766 C24.1575605,9.41306113 24.8440977,9.41306113 25.5108291,9.54640766 C25.8295072,9.61265896 26.1409769,9.70978392 26.4408291,9.83640766 C26.5908291,9.89640766 26.7408291,9.97640766 26.8808291,10.0464077 C27.7307476,10.5163526 28.4308842,11.2164891 28.9008291,12.0664077 C28.9708291,12.2064077 29.0508291,12.3564077 29.1108291,12.5064077 C29.2374528,12.8062599 29.3345778,13.1177296 29.4008291,13.4364077 C29.5341492,14.1031416 29.5341492,14.7896737 29.4008291,15.4564077 C29.3345778,15.7750857 29.2374528,16.0865554 29.1108291,16.3864077 Z M24.5008291,8.94640766 C21.463263,8.94640766 19.0008291,11.4088415 19.0008291,14.4464077 C19.0008291,17.4839738 21.463263,19.9464077 24.5008291,19.9464077 C27.5383952,19.9464077 30.0008291,17.4839738 30.0008291,14.4464077 C30.0008291,11.4088415 27.5383952,8.94640766 24.5008291,8.94640766 L24.5008291,8.94640766 Z M29.1108291,16.3864077 C29.0508291,16.5364077 28.9708291,16.6864077 28.9008291,16.8264077 C28.4308842,17.6763262 27.7307476,18.3764627 26.8808291,18.8464077 C26.7408291,18.9164077 26.5908291,18.9964077 26.4408291,19.0564077 C26.1409747,19.1830254 25.8295056,19.2801502 25.5108291,19.3464077 C24.8440977,19.4797542 24.1575605,19.4797542 23.4908291,19.3464077 C23.172151,19.2801564 22.8606814,19.1830314 22.5608291,19.0564077 C22.4108291,18.9964077 22.2608291,18.9164077 22.1208291,18.8464077 C21.2709106,18.3764627 20.5707741,17.6763262 20.1008291,16.8264077 C20.0308291,16.6864077 19.9508291,16.5364077 19.8908291,16.3864077 C19.7642113,16.0865532 19.6670865,15.7750841 19.6008291,15.4564077 C19.4674826,14.7896763 19.4674826,14.103139 19.6008291,13.4364077 C19.6670804,13.1177296 19.7642054,12.8062599 19.8908291,12.5064077 C19.9508291,12.3564077 20.0308291,12.2064077 20.1008291,12.0664077 C20.5707741,11.2164891 21.2709106,10.5163526 22.1208291,10.0464077 C22.2608291,9.97640766 22.4108291,9.89640766 22.5608291,9.83640766 C22.8606814,9.70978392 23.172151,9.61265896 23.4908291,9.54640766 C24.1575605,9.41306113 24.8440977,9.41306113 25.5108291,9.54640766 C25.8295072,9.61265896 26.1409769,9.70978392 26.4408291,9.83640766 C26.5908291,9.89640766 26.7408291,9.97640766 26.8808291,10.0464077 C27.7307476,10.5163526 28.4308842,11.2164891 28.9008291,12.0664077 C28.9708291,12.2064077 29.0508291,12.3564077 29.1108291,12.5064077 C29.2374528,12.8062599 29.3345778,13.1177296 29.4008291,13.4364077 C29.5341492,14.1031416 29.5341492,14.7896737 29.4008291,15.4564077 C29.3345778,15.7750857 29.2374528,16.0865554 29.1108291,16.3864077 Z M24.5008291,8.94640766 C21.463263,8.94640766 19.0008291,11.4088415 19.0008291,14.4464077 C19.0008291,17.4839738 21.463263,19.9464077 24.5008291,19.9464077 C27.5383952,19.9464077 30.0008291,17.4839738 30.0008291,14.4464077 C30.0008291,11.4088415 27.5383952,8.94640766 24.5008291,8.94640766 L24.5008291,8.94640766 Z M29.1108291,16.3864077 C29.0508291,16.5364077 28.9708291,16.6864077 28.9008291,16.8264077 C28.4308842,17.6763262 27.7307476,18.3764627 26.8808291,18.8464077 C26.7408291,18.9164077 26.5908291,18.9964077 26.4408291,19.0564077 C26.1409747,19.1830254 25.8295056,19.2801502 25.5108291,19.3464077 C24.8440977,19.4797542 24.1575605,19.4797542 23.4908291,19.3464077 C23.172151,19.2801564 22.8606814,19.1830314 22.5608291,19.0564077 C22.4108291,18.9964077 22.2608291,18.9164077 22.1208291,18.8464077 C21.2709106,18.3764627 20.5707741,17.6763262 20.1008291,16.8264077 C20.0308291,16.6864077 19.9508291,16.5364077 19.8908291,16.3864077 C19.7642113,16.0865532 19.6670865,15.7750841 19.6008291,15.4564077 C19.4674826,14.7896763 19.4674826,14.103139 19.6008291,13.4364077 C19.6670804,13.1177296 19.7642054,12.8062599 19.8908291,12.5064077 C19.9508291,12.3564077 20.0308291,12.2064077 20.1008291,12.0664077 C20.5707741,11.2164891 21.2709106,10.5163526 22.1208291,10.0464077 C22.2608291,9.97640766 22.4108291,9.89640766 22.5608291,9.83640766 C22.8606814,9.70978392 23.172151,9.61265896 23.4908291,9.54640766 C24.1575605,9.41306113 24.8440977,9.41306113 25.5108291,9.54640766 C25.8295072,9.61265896 26.1409769,9.70978392 26.4408291,9.83640766 C26.5908291,9.89640766 26.7408291,9.97640766 26.8808291,10.0464077 C27.7307476,10.5163526 28.4308842,11.2164891 28.9008291,12.0664077 C28.9708291,12.2064077 29.0508291,12.3564077 29.1108291,12.5064077 C29.2374528,12.8062599 29.3345778,13.1177296 29.4008291,13.4364077 C29.5341492,14.1031416 29.5341492,14.7896737 29.4008291,15.4564077 C29.3345778,15.7750857 29.2374528,16.0865554 29.1108291,16.3864077 Z" id="Shape" fill="#000000" opacity="0.07"></path>
        </g>
    </g>
</svg>