<?xml version="1.0" encoding="UTF-8"?>
<svg width="40px" height="40px" viewBox="0 0 40 40" version="1.1" xmlns="http://www.w3.org/2000/svg" xmlns:xlink="http://www.w3.org/1999/xlink">
    <title>twitter</title>
    <g id="Twitter" stroke="none" stroke-width="1" fill="none" fill-rule="evenodd">
        <g id="twitter" transform="translate(0.0008, 0)" fill-rule="nonzero">
            <circle id="Oval" fill="#F2E57C" cx="20" cy="20" r="20"></circle>
            <path d="M31.972,13.574 C31.0746028,13.9715836 30.1227048,14.2324792 29.148,14.348 C30.174236,13.7346486 30.9423239,12.7689406 31.309,11.631 C30.3433306,12.2027639 29.2871715,12.605545 28.186,12.822 C26.6640814,11.2005498 24.2430607,10.8029947 22.2825301,11.852593 C20.3219995,12.9021913 19.3104723,15.1374104 19.816,17.303 C15.8668288,17.1036902 12.1878089,15.2376471 9.694,12.169 C8.39167855,14.414931 9.05730538,17.2861852 11.215,18.73 C10.433541,18.7051398 9.66932892,18.4939444 8.986,18.114 L8.986,18.176 C8.98742612,20.5149493 10.6356489,22.5294438 12.928,22.994 C12.5065534,23.1085125 12.0717267,23.1663549 11.635,23.166 C11.3241264,23.1664901 11.013961,23.1363445 10.709,23.076 C11.353525,25.0764407 13.1967064,26.4472792 15.298,26.489 C13.558128,27.8540472 11.4094443,28.593758 9.198,28.589 C8.80696284,28.5897045 8.41624374,28.5666621 8.028,28.52 C10.273371,29.964962 12.8878702,30.731604 15.558,30.728 C19.2721687,30.7535003 22.8416521,29.2895309 25.4683097,26.663437 C28.0949674,24.0373432 29.559703,20.4681741 29.535,16.754 C29.535,16.541 29.529,16.327 29.522,16.118 C30.4833201,15.4222889 31.3129579,14.5608201 31.972,13.574 Z" id="Path" fill="#000000"></path>
        </g>
    </g>
</svg>