<?xml version="1.0" standalone="no"?>
<!DOCTYPE svg PUBLIC "-//W3C//DTD SVG 20010904//EN"
 "http://www.w3.org/TR/2001/REC-SVG-20010904/DTD/svg10.dtd">
<svg version="1.0" xmlns="http://www.w3.org/2000/svg"
 width="700.000000pt" height="700.000000pt" viewBox="0 0 700.000000 700.000000"
 preserveAspectRatio="xMidYMid meet">
<metadata>
Created by potrace 1.14, written by Peter Selinger 2001-2017
</metadata>
<g transform="translate(0.000000,700.000000) scale(0.100000,-0.100000)"
fill="#000000" stroke="none">
<path d="M3050 5598 c0 -2 97 -496 215 -1098 180 -917 214 -1079 210 -995 -2
55 -25 530 -50 1055 -25 525 -48 974 -51 998 l-5 42 -160 0 c-87 0 -159 -1
-159 -2z"/>
<path d="M3640 5595 c0 -28 -101 -2052 -105 -2120 -4 -49 -4 -88 -1 -85 5 6
476 2180 476 2199 0 8 -60 11 -185 11 -102 0 -185 -2 -185 -5z"/>
<path d="M4295 5588 c-4 -13 -693 -2159 -702 -2188 -13 -41 93 165 489 951
l431 857 -68 196 -68 196 -39 0 c-22 0 -41 -5 -43 -12z"/>
<path d="M2570 5398 l-62 -183 439 -880 c241 -484 441 -884 446 -890 4 -5 -14
53 -41 130 -542 1533 -705 1991 -712 1998 -4 5 -35 -74 -70 -175z"/>
<path d="M4165 4158 c-550 -838 -498 -758 -492 -758 3 0 229 260 503 578 273
317 508 588 520 603 l24 25 -40 119 c-22 65 -43 122 -47 126 -5 4 -215 -308
-468 -693z"/>
<path d="M2375 4833 c-4 -10 -27 -76 -51 -147 -42 -124 -43 -130 -26 -150 55
-64 1010 -1117 1039 -1146 34 -34 -113 191 -674 1038 -212 318 -283 418 -288
405z"/>
<path d="M2157 4203 c-26 -75 -44 -140 -40 -143 10 -9 1163 -725 1213 -753 45
-26 92 -69 -525 488 -297 269 -554 501 -570 516 l-30 28 -48 -136z"/>
<path d="M4265 3815 c-302 -261 -556 -482 -565 -491 -8 -9 77 42 190 113 113
71 383 241 600 378 217 136 399 252 404 256 9 8 -61 219 -73 219 -3 -1 -253
-214 -556 -475z"/>
<path d="M2021 3809 c-23 -67 -39 -124 -37 -127 6 -5 1342 -432 1354 -432 7 0
-1236 666 -1261 676 -11 4 -25 -26 -56 -117z"/>
<path d="M4323 3592 c-342 -180 -625 -331 -629 -335 -4 -4 13 0 37 8 24 8 325
105 669 215 343 110 626 203 629 206 7 6 -68 234 -77 234 -4 0 -287 -148 -629
-328z"/>
<path d="M1912 3493 c-14 -27 -75 -214 -71 -217 2 -2 312 -17 689 -35 377 -17
705 -34 730 -36 106 -11 -27 21 -645 155 -357 78 -660 144 -672 146 -14 4 -24
0 -31 -13z"/>
<path d="M4415 3360 c-374 -80 -687 -149 -695 -152 -8 -4 14 -4 50 -2 36 2
362 18 725 35 363 17 665 32 672 34 8 3 -2 41 -28 117 -22 62 -41 113 -42 114
-1 0 -308 -65 -682 -146z"/>
<path d="M2580 3119 c-404 -21 -752 -39 -774 -41 l-38 -3 -59 -167 c-32 -93
-56 -168 -54 -168 2 0 372 90 822 200 711 174 892 221 848 218 -5 0 -341 -18
-745 -39z"/>
<path d="M3735 3145 c26 -10 1597 -346 1601 -342 2 2 -17 65 -42 140 -40 120
-49 137 -67 137 -12 0 -330 16 -707 35 -638 32 -810 39 -785 30z"/>
<path d="M2482 2865 c-475 -139 -868 -257 -872 -261 -12 -12 -171 -476 -166
-482 5 -4 1882 973 1901 989 12 11 121 43 -863 -246z"/>
<path d="M3720 3087 c79 -45 1843 -947 1846 -944 3 3 -133 397 -139 403 -3 2
-1675 539 -1707 548 l-25 7 25 -14z"/>
<path d="M3665 3052 c6 -6 323 -301 705 -656 l695 -645 310 -1 c266 0 307 2
295 14 -13 12 -1956 1266 -2000 1291 -11 5 -12 5 -5 -3z"/>
<path d="M2290 2390 c-536 -341 -976 -624 -978 -630 -3 -7 69 -10 212 -10
l216 0 747 611 c710 581 794 650 783 648 -3 0 -444 -279 -980 -619z"/>
<path d="M2809 2393 c-305 -334 -560 -615 -567 -625 -13 -17 -6 -18 137 -18
l150 0 104 153 c196 287 737 1097 734 1097 -2 0 -253 -273 -558 -607z"/>
<path d="M3540 2955 c0 -33 91 -1179 95 -1192 3 -9 33 -13 105 -13 89 0 100 2
100 18 -1 27 -299 1209 -300 1187z"/>
<path d="M3122 2365 c-160 -328 -292 -600 -292 -606 0 -6 40 -9 107 -7 l107 3
188 595 c103 327 186 599 185 603 -1 4 -134 -260 -295 -588z"/>
<path d="M3592 2930 c3 -8 78 -269 167 -580 89 -311 164 -573 167 -582 5 -15
18 -18 95 -18 49 0 89 4 89 9 0 12 -509 1174 -517 1181 -4 3 -4 -2 -1 -10z"/>
<path d="M3813 2787 c61 -84 258 -352 437 -595 l324 -442 120 0 120 0 -30 33
c-17 17 -266 285 -553 595 -287 309 -524 562 -526 562 -3 0 46 -69 108 -153z"/>
<path d="M3337 2352 c-71 -317 -128 -583 -128 -589 1 -9 25 -13 86 -13 47 0
85 2 85 5 0 3 20 263 45 577 25 314 45 577 43 585 -2 7 -61 -247 -131 -565z"/>
</g>
</svg>
