<?xml version="1.0" encoding="UTF-8"?>
<svg width="41px" height="40px" viewBox="0 0 41 40" version="1.1" xmlns="http://www.w3.org/2000/svg" xmlns:xlink="http://www.w3.org/1999/xlink">
    <title>impact</title>
    <g id="Page-1" stroke="none" stroke-width="1" fill="none" fill-rule="evenodd">
        <g id="impact" transform="translate(0.9282, 0)">
            <circle id="Oval" fill="#F2E57C" fill-rule="nonzero" cx="20.0718218" cy="20" r="20"></circle>
            <g id="Group-5" transform="translate(20.002, 20.829) rotate(20) translate(-20.002, -20.829)translate(2.902, 9.329)" fill="#000000">
                <rect id="Rectangle" x="7.2" y="11.5" width="20" height="2"></rect>
                <rect id="Rectangle-Copy-11" x="8.3" y="2.3" width="13" height="1.4"></rect>
                <rect id="Rectangle-Copy-12" x="-5.9759981e-13" y="6.9" width="15" height="1.2"></rect>
                <rect id="Rectangle-Copy-14" x="3.3" y="19.3" width="17" height="1.4"></rect>
                <polygon id="Triangle" transform="translate(30.2, 12.5) rotate(90) translate(-30.2, -12.5)" points="30.2 8.5 34.2 16.5 26.2 16.5"></polygon>
                <polygon id="Triangle-Copy" transform="translate(23.4, 3) rotate(90) translate(-23.4, -3)" points="23.4 -1.2395292e-13 26.4 6 20.4 6"></polygon>
                <polygon id="Triangle-Copy-2" transform="translate(16.8, 7.5) rotate(90) translate(-16.8, -7.5)" points="16.8 5.5 18.8 9.5 14.8 9.5"></polygon>
                <polygon id="Triangle-Copy-3" transform="translate(22.4, 20) rotate(90) translate(-22.4, -20)" points="22.4 17 25.4 23 19.4 23"></polygon>
            </g>
        </g>
    </g>
</svg>